<svg version="1.1" id="Layer_1" xmlns="http://www.w3.org/2000/svg" xmlns:xlink="http://www.w3.org/1999/xlink" x="0px" y="0px"
	 width="100%" viewBox="0 0 118 122" enable-background="new 0 0 118 122" xml:space="preserve">
<path fill="#FDFDFD" opacity="1.000000" stroke="none" 
	d="
M65.000000,123.000000 
	C43.333332,123.000000 22.166666,123.000000 1.000000,123.000000 
	C1.000000,82.333336 1.000000,41.666668 1.000000,1.000000 
	C40.333332,1.000000 79.666664,1.000000 119.000000,1.000000 
	C119.000000,41.666668 119.000000,82.333336 119.000000,123.000000 
	C101.166664,123.000000 83.333336,123.000000 65.000000,123.000000 
M35.335915,97.768242 
	C34.583160,99.270065 33.830402,100.771896 33.077648,102.273727 
	C34.507305,102.850601 35.915257,103.850151 37.370697,103.924881 
	C41.690418,104.146667 46.034378,104.126183 50.356598,103.930122 
	C51.661762,103.870926 53.879826,103.087738 54.000858,102.357819 
	C54.215553,101.063019 53.191307,99.536415 52.604549,98.140800 
	C51.522655,95.567520 49.450924,93.031975 49.414616,90.457817 
	C49.142117,71.138222 49.261440,51.813030 49.275867,32.489605 
	C49.276939,31.049231 49.415474,29.608957 49.478394,28.394629 
	C59.718372,27.044250 69.235558,26.479239 72.084785,39.270466 
	C72.118988,39.424026 72.219185,39.611290 72.345978,39.688210 
	C73.427170,40.344116 74.942680,41.760777 75.521217,41.449570 
	C76.600166,40.869183 77.616631,39.349403 77.796860,38.096535 
	C78.149124,35.647881 77.913437,33.113884 77.911827,30.615225 
	C77.906929,22.988964 77.557899,22.613184 70.116096,22.607718 
	C53.291389,22.595356 36.466667,22.603470 19.641954,22.603416 
	C9.405717,22.603384 9.269703,22.606483 9.489818,32.702633 
	C9.555830,35.730400 7.614532,40.114784 11.922050,41.190628 
	C13.096450,41.483944 15.354774,36.839771 17.336134,34.662193 
	C19.460743,32.327179 21.535135,28.963848 24.186665,28.313705 
	C28.515776,27.252232 33.295097,28.026905 38.036324,28.026905 
	C38.036324,49.925041 38.080429,71.233597 37.946037,92.541023 
	C37.936123,94.112503 36.639942,95.675865 35.335915,97.768242 
M91.987343,36.501022 
	C91.987343,50.298573 91.987236,64.096123 91.987389,77.893677 
	C91.987473,86.205460 92.042221,94.517822 91.953644,102.828659 
	C91.928612,105.176918 92.396477,106.673065 95.135307,106.691925 
	C98.051529,106.712006 98.234589,104.913460 98.151657,102.718910 
	C98.076370,100.726936 98.136452,98.729858 98.136452,96.735031 
	C98.136436,71.633446 98.133957,46.531868 98.140442,21.430288 
	C98.141006,19.222607 98.425133,16.994522 95.032143,17.060730 
	C91.696396,17.125820 91.970505,19.328430 91.980843,21.538153 
	C92.002617,26.192650 91.987389,30.847317 91.987343,36.501022 
z"/>
<path fill="#040404" opacity="1.000000" stroke="none" 
	d="
M35.638832,97.505623 
	C36.639942,95.675865 37.936123,94.112503 37.946037,92.541023 
	C38.080429,71.233597 38.036324,49.925041 38.036324,28.026905 
	C33.295097,28.026905 28.515776,27.252232 24.186665,28.313705 
	C21.535135,28.963848 19.460743,32.327179 17.336134,34.662193 
	C15.354774,36.839771 13.096450,41.483944 11.922050,41.190628 
	C7.614532,40.114784 9.555830,35.730400 9.489818,32.702633 
	C9.269703,22.606483 9.405717,22.603384 19.641954,22.603416 
	C36.466667,22.603470 53.291389,22.595356 70.116096,22.607718 
	C77.557899,22.613184 77.906929,22.988964 77.911827,30.615225 
	C77.913437,33.113884 78.149124,35.647881 77.796860,38.096535 
	C77.616631,39.349403 76.600166,40.869183 75.521217,41.449570 
	C74.942680,41.760777 73.427170,40.344116 72.345978,39.688210 
	C72.219185,39.611290 72.118988,39.424026 72.084785,39.270466 
	C69.235558,26.479239 59.718372,27.044250 49.478394,28.394629 
	C49.415474,29.608957 49.276939,31.049231 49.275867,32.489605 
	C49.261440,51.813030 49.142117,71.138222 49.414616,90.457817 
	C49.450924,93.031975 51.522655,95.567520 52.604549,98.140800 
	C53.191307,99.536415 54.215553,101.063019 54.000858,102.357819 
	C53.879826,103.087738 51.661762,103.870926 50.356598,103.930122 
	C46.034378,104.126183 41.690418,104.146667 37.370697,103.924881 
	C35.915257,103.850151 34.507305,102.850601 33.077644,102.273727 
	C33.830402,100.771896 34.583160,99.270065 35.638832,97.505623 
z"/>
<path fill="#010101" opacity="1.000000" stroke="none" 
	d="
M91.987343,36.001469 
	C91.987389,30.847317 92.002617,26.192650 91.980843,21.538153 
	C91.970505,19.328430 91.696396,17.125820 95.032143,17.060730 
	C98.425133,16.994522 98.141006,19.222607 98.140442,21.430288 
	C98.133957,46.531868 98.136436,71.633446 98.136452,96.735031 
	C98.136452,98.729858 98.076370,100.726936 98.151657,102.718910 
	C98.234589,104.913460 98.051529,106.712006 95.135307,106.691925 
	C92.396477,106.673065 91.928612,105.176918 91.953644,102.828659 
	C92.042221,94.517822 91.987473,86.205460 91.987389,77.893677 
	C91.987236,64.096123 91.987343,50.298573 91.987343,36.001469 
z"/>
</svg>